<svg xmlns="http://www.w3.org/2000/svg" width="1200" height="675" viewBox="0 0 1200 675">
<defs>
<linearGradient id="bg" x1="0" y1="0" x2="1" y2="1">
<stop offset="0" stop-color="#0c1620"/><stop offset="0.6" stop-color="#1c4a52"/><stop offset="1" stop-color="#0c1620"/>
</linearGradient>
<radialGradient id="glow" cx="0.8" cy="0.85" r="0.7">
<stop offset="0" stop-color="#3ddc84" stop-opacity="0.16"/><stop offset="1" stop-color="#3ddc84" stop-opacity="0"/>
</radialGradient>
<linearGradient id="shade" x1="0" y1="0" x2="1" y2="0">
<stop offset="0" stop-color="#0c1620" stop-opacity="0.88"/><stop offset="0.62" stop-color="#0c1620" stop-opacity="0.55"/><stop offset="1" stop-color="#0c1620" stop-opacity="0.1"/>
</linearGradient>
</defs>
<rect width="1200" height="675" fill="url(#bg)"/>
<g><circle cx="802" cy="478" r="98" fill="#3ddc84" opacity="0.10"/><circle cx="1115" cy="624" r="109" fill="#3ddc84" opacity="0.17"/><circle cx="1154" cy="334" r="46" fill="#3ddc84" opacity="0.12"/><circle cx="581" cy="375" r="91" fill="#3ddc84" opacity="0.06"/><circle cx="1087" cy="304" r="44" fill="#3ddc84" opacity="0.08"/><circle cx="573" cy="64" r="27" fill="#3ddc84" opacity="0.06"/></g>
<g><rect x="720" y="492" width="24" height="113" rx="4" fill="#3ddc84" opacity="0.5"/><rect x="729" y="468" width="6" height="161" rx="3" fill="#3ddc84" opacity="0.25"/><rect x="784" y="519" width="24" height="86" rx="4" fill="#ff5c6c" opacity="0.5"/><rect x="793" y="495" width="6" height="134" rx="3" fill="#ff5c6c" opacity="0.25"/><rect x="848" y="427" width="24" height="178" rx="4" fill="#ff5c6c" opacity="0.5"/><rect x="857" y="403" width="6" height="226" rx="3" fill="#ff5c6c" opacity="0.25"/><rect x="912" y="486" width="24" height="119" rx="4" fill="#ff5c6c" opacity="0.5"/><rect x="921" y="462" width="6" height="167" rx="3" fill="#ff5c6c" opacity="0.25"/><rect x="976" y="516" width="24" height="89" rx="4" fill="#ff5c6c" opacity="0.5"/><rect x="985" y="492" width="6" height="137" rx="3" fill="#ff5c6c" opacity="0.25"/><rect x="1040" y="530" width="24" height="75" rx="4" fill="#3ddc84" opacity="0.5"/><rect x="1049" y="506" width="6" height="123" rx="3" fill="#3ddc84" opacity="0.25"/><rect x="1104" y="538" width="24" height="67" rx="4" fill="#3ddc84" opacity="0.5"/><rect x="1113" y="514" width="6" height="115" rx="3" fill="#3ddc84" opacity="0.25"/></g>
<g><circle cx="1010" cy="545" r="130" fill="none" stroke="#3ddc84" stroke-width="9" opacity="0.85"/><circle cx="1010" cy="545" r="100" fill="none" stroke="#3ddc84" stroke-width="3" opacity="0.4"/><path d="M 976 493 h 68 M 976 597 h 68 M 964 528 h 92 a 27 27 0 0 1 0 54 h -92 a 27 27 0 0 1 0 -54 h 108" fill="none" stroke="#3ddc84" stroke-width="10" stroke-linecap="round" opacity="0.85"/></g>
<rect width="1200" height="675" fill="url(#glow)"/>
<rect width="1200" height="675" fill="url(#shade)"/>
<g font-family="Helvetica, Arial, sans-serif">
<rect x="70" y="52" width="150" height="34" rx="17" fill="#3ddc84"/>
<text x="145" y="75" font-size="17" font-weight="bold" fill="#0c1620" text-anchor="middle" letter-spacing="1">COINPULSE</text>
<rect x="70" y="150" width="102" height="32" rx="16" fill="#3ddc84" opacity="0.18"/>
<text x="86" y="172" font-size="16" font-weight="bold" fill="#3ddc84" letter-spacing="1.5">CRYPTO</text>
<text font-size="46" font-weight="bold" fill="#f2f4fa"><tspan x="70" y="235">US Banking Association</tspan><tspan x="70" y="297">Sues OCC Over Crypto Trust</tspan><tspan x="70" y="359">Charters as Legal Battle</tspan><tspan x="70" y="421">Escalates</tspan></text>
<rect x="70" y="597" width="90" height="6" rx="3" fill="#3ddc84"/>
</g>
</svg>